<svg width="15" height="15" viewBox="0 0 15 15" fill="none" xmlns="http://www.w3.org/2000/svg">
<path fill-rule="evenodd" clip-rule="evenodd" d="M13.2929 0.292893C13.6834 -0.0976311 14.3166 -0.0976311 14.7071 0.292893C15.0976 0.683417 15.0976 1.31658 14.7071 1.70711L13.1446 3.26961C12.7541 3.66013 12.1209 3.66013 11.7304 3.26961C11.3399 2.87908 11.3399 2.24592 11.7304 1.85539L13.2929 0.292893ZM8.60539 4.98039C8.99592 4.58987 9.62908 4.58987 10.0196 4.98039C10.4101 5.37092 10.4101 6.00408 10.0196 6.39461L9.16421 7.25L14.7071 12.7929C15.0976 13.1834 15.0976 13.8166 14.7071 14.2071C14.3166 14.5976 13.6834 14.5976 13.2929 14.2071L7.75 8.66421L2.20711 14.2071C1.81658 14.5976 1.18342 14.5976 0.792894 14.2071C0.402369 13.8166 0.402369 13.1834 0.792894 12.7929L6.33579 7.25L0.792893 1.70711C0.402369 1.31658 0.402369 0.683417 0.792893 0.292893C1.18342 -0.0976311 1.81658 -0.0976311 2.20711 0.292893L7.75 5.83579L8.60539 4.98039Z" fill="url(#paint0_linear_619_207)"/>
<defs>
<linearGradient id="paint0_linear_619_207" x1="1.68852" y1="2.85246" x2="12.0287" y2="12.7172" gradientUnits="userSpaceOnUse">
<stop stop-color="#06425C"/>
<stop offset="1" stop-color="#BA926D"/>
</linearGradient>
</defs>
</svg>
