<svg width="275" height="82" viewBox="0 0 275 82" fill="none" xmlns="http://www.w3.org/2000/svg">
<rect x="1.5" y="1.5" width="272" height="79" rx="8.5" fill="url(#paint0_linear_624_293)"/>
<path d="M89.82 48V34H94.72L97.14 46.2H97.5L99.92 34H104.82V48H102.26V35.94H101.9L99.5 48H95.14L92.74 35.94H92.38V48H89.82ZM107.457 48V34H110.097V48H107.457ZM112.73 48V34H117.75L120.53 46.2H120.89V34H123.49V48H118.47L115.69 35.8H115.33V48H112.73ZM129.369 48V36.4H125.289V34H136.089V36.4H132.009V48H129.369ZM142.359 48V34H147.379L150.159 46.2H150.519V34H153.119V48H148.099L145.319 35.8H144.959V48H142.359ZM161.198 48.28C159.438 48.28 158.038 47.8 156.998 46.84C155.958 45.8667 155.438 44.48 155.438 42.68V39.32C155.438 37.52 155.958 36.14 156.998 35.18C158.038 34.2067 159.438 33.72 161.198 33.72C162.958 33.72 164.358 34.2067 165.398 35.18C166.438 36.14 166.958 37.52 166.958 39.32V42.68C166.958 44.48 166.438 45.8667 165.398 46.84C164.358 47.8 162.958 48.28 161.198 48.28ZM161.198 45.92C162.184 45.92 162.951 45.6333 163.498 45.06C164.044 44.4867 164.318 43.72 164.318 42.76V39.24C164.318 38.28 164.044 37.5133 163.498 36.94C162.951 36.3667 162.184 36.08 161.198 36.08C160.224 36.08 159.458 36.3667 158.898 36.94C158.351 37.5133 158.078 38.28 158.078 39.24V42.76C158.078 43.72 158.351 44.4867 158.898 45.06C159.458 45.6333 160.224 45.92 161.198 45.92ZM170.276 48L168.436 34H171.056L172.416 46.16H172.776L174.536 34H179.096L180.856 46.16H181.216L182.576 34H185.196L183.356 48H178.796L176.996 35.56H176.636L174.836 48H170.276Z" fill="white"/>
<rect x="1.5" y="1.5" width="272" height="79" rx="8.5" stroke="url(#paint1_linear_624_293)" stroke-width="3"/>
<defs>
<linearGradient id="paint0_linear_624_293" x1="-2.1293e-09" y1="40.833" x2="275.233" y2="40.833" gradientUnits="userSpaceOnUse">
<stop stop-color="#06425C"/>
<stop offset="0.449705" stop-color="#305560"/>
<stop offset="1" stop-color="#BA926D"/>
</linearGradient>
<linearGradient id="paint1_linear_624_293" x1="-2.1293e-09" y1="40.833" x2="275.233" y2="40.833" gradientUnits="userSpaceOnUse">
<stop stop-color="#06425C"/>
<stop offset="0.449705" stop-color="#305560"/>
<stop offset="1" stop-color="#BA926D"/>
</linearGradient>
</defs>
</svg>
