<svg width="21" height="16" viewBox="0 0 21 16" fill="none" xmlns="http://www.w3.org/2000/svg">
<path fill-rule="evenodd" clip-rule="evenodd" d="M1 0C0.447715 0 0 0.447715 0 1C0 1.55228 0.447715 2 1 2H20C20.5523 2 21 1.55228 21 1C21 0.447715 20.5523 0 20 0H1ZM1 7C0.447715 7 0 7.44772 0 8C0 8.55229 0.447715 9 1 9H11C11.5523 9 12 8.55229 12 8C12 7.44772 11.5523 7 11 7H1ZM14 8C14 7.44772 14.4477 7 15 7L20 7C20.5523 7 21 7.44772 21 8C21 8.55229 20.5523 9 20 9L15 9C14.4477 9 14 8.55229 14 8ZM1 14C0.447715 14 0 14.4477 0 15C0 15.5523 0.447715 16 1 16H20C20.5523 16 21 15.5523 21 15C21 14.4477 20.5523 14 20 14H1Z" fill="url(#paint0_linear_611_24)"/>
<defs>
<linearGradient id="paint0_linear_611_24" x1="1.72131" y1="3.14754" x2="12.861" y2="17.0961" gradientUnits="userSpaceOnUse">
<stop stop-color="#06425C"/>
<stop offset="1" stop-color="#BA926D"/>
</linearGradient>
</defs>
</svg>
