<svg width="363" height="61" viewBox="0 0 363 61" fill="none" xmlns="http://www.w3.org/2000/svg">
<path d="M88.3081 39.9999V21.9039H81.7831V19.6999H97.2691V21.9039H90.7441V39.9999H88.3081Z" fill="white"/>
<path d="M100.369 39.9999V19.6999H102.805V28.7189H112.317V19.6999H114.753V39.9999H112.317V30.9229H102.805V39.9999H100.369Z" fill="white"/>
<path d="M119.4 39.9999V19.6999H131.899V21.9039H121.836V28.6899H131.087V30.8939H121.836V37.7959H132.044V39.9999H119.4Z" fill="white"/>
<path d="M143.189 39.9999V19.6999H147.829L153.223 38.4629H153.6L158.994 19.6999H163.634V39.9999H161.285V21.2949H160.879L155.514 39.9999H151.309L145.944 21.2949H145.538V39.9999H143.189Z" fill="white"/>
<path d="M168.281 39.9999V19.6999H180.78V21.9039H170.717V28.6899H179.968V30.8939H170.717V37.7959H180.925V39.9999H168.281Z" fill="white"/>
<path d="M189.61 39.9999V21.9039H183.085V19.6999H198.571V21.9039H192.046V39.9999H189.61Z" fill="white"/>
<path d="M197.895 39.9999L204.159 19.6999H208.451L214.715 39.9999H212.192L210.626 34.8669H201.984L200.418 39.9999H197.895ZM202.593 32.6629H209.988L206.508 21.1789H206.102L202.593 32.6629Z" fill="white"/>
<path d="M226.697 39.9999L223.391 19.6999H225.827L228.698 38.4339H229.104L232.845 19.6999H237.195L240.907 38.4339H241.313L244.184 19.6999H246.62L243.314 39.9999H238.964L235.223 21.1499H234.817L231.076 39.9999H226.697Z" fill="white"/>
<path d="M247.654 39.9999L253.918 19.6999H258.21L264.474 39.9999H261.951L260.385 34.8669H251.743L250.177 39.9999H247.654ZM252.352 32.6629H259.747L256.267 21.1789H255.861L252.352 32.6629Z" fill="white"/>
<path d="M267.515 39.9999V19.6999H275.722C276.979 19.6999 278.081 19.9223 279.028 20.3669C279.995 20.7923 280.749 21.4109 281.29 22.2229C281.832 23.0156 282.102 23.9726 282.102 25.0939V25.4129C282.102 26.7469 281.783 27.8006 281.145 28.5739C280.507 29.3473 279.753 29.8693 278.883 30.1399V30.5459C279.579 30.5653 280.15 30.7973 280.594 31.2419C281.058 31.6673 281.29 32.3149 281.29 33.1849V39.9999H278.883V33.4749C278.883 32.8949 278.719 32.4503 278.39 32.1409C278.081 31.8316 277.607 31.6769 276.969 31.6769H269.951V39.9999H267.515ZM269.951 29.4729H275.49C276.824 29.4729 277.849 29.1539 278.564 28.5159C279.299 27.8586 279.666 26.9499 279.666 25.7899V25.5869C279.666 24.4269 279.309 23.5279 278.593 22.8899C277.878 22.2326 276.844 21.9039 275.49 21.9039H269.951V29.4729Z" fill="white"/>
<path d="M285.81 39.9999V19.6999H294.017C295.274 19.6999 296.376 19.9223 297.323 20.3669C298.29 20.7923 299.044 21.4109 299.585 22.2229C300.127 23.0156 300.397 23.9726 300.397 25.0939V25.4129C300.397 26.7469 300.078 27.8006 299.44 28.5739C298.802 29.3473 298.048 29.8693 297.178 30.1399V30.5459C297.874 30.5653 298.445 30.7973 298.889 31.2419C299.353 31.6673 299.585 32.3149 299.585 33.1849V39.9999H297.178V33.4749C297.178 32.8949 297.014 32.4503 296.685 32.1409C296.376 31.8316 295.902 31.6769 295.264 31.6769H288.246V39.9999H285.81ZM288.246 29.4729H293.785C295.119 29.4729 296.144 29.1539 296.859 28.5159C297.594 27.8586 297.961 26.9499 297.961 25.7899V25.5869C297.961 24.4269 297.604 23.5279 296.888 22.8899C296.173 22.2326 295.139 21.9039 293.785 21.9039H288.246V29.4729Z" fill="white"/>
<path d="M304.105 39.9999V19.6999H306.541V39.9999H304.105Z" fill="white"/>
<path d="M318.551 40.4059C316.135 40.4059 314.201 39.7099 312.751 38.3179C311.321 36.9066 310.605 34.8573 310.605 32.1699V27.5299C310.605 24.8426 311.321 22.8029 312.751 21.4109C314.201 19.9996 316.135 19.2939 318.551 19.2939C320.987 19.2939 322.921 19.9996 324.351 21.4109C325.801 22.8029 326.526 24.8426 326.526 27.5299V32.1699C326.526 34.8573 325.801 36.9066 324.351 38.3179C322.921 39.7099 320.987 40.4059 318.551 40.4059ZM318.551 38.2309C320.311 38.2309 321.674 37.7089 322.64 36.6649C323.607 35.6016 324.09 34.1323 324.09 32.2569V27.4429C324.09 25.5676 323.607 24.1079 322.64 23.0639C321.674 22.0006 320.311 21.4689 318.551 21.4689C316.811 21.4689 315.458 22.0006 314.491 23.0639C313.525 24.1079 313.041 25.5676 313.041 27.4429V32.2569C313.041 34.1323 313.525 35.6016 314.491 36.6649C315.458 37.7089 316.811 38.2309 318.551 38.2309Z" fill="white"/>
<path d="M330.585 39.9999V19.6999H338.792C340.048 19.6999 341.15 19.9223 342.098 20.3669C343.064 20.7923 343.818 21.4109 344.36 22.2229C344.901 23.0156 345.172 23.9726 345.172 25.0939V25.4129C345.172 26.7469 344.853 27.8006 344.215 28.5739C343.577 29.3473 342.823 29.8693 341.953 30.1399V30.5459C342.649 30.5653 343.219 30.7973 343.664 31.2419C344.128 31.6673 344.36 32.3149 344.36 33.1849V39.9999H341.953V33.4749C341.953 32.8949 341.788 32.4503 341.46 32.1409C341.15 31.8316 340.677 31.6769 340.039 31.6769H333.021V39.9999H330.585ZM333.021 29.4729H338.56C339.894 29.4729 340.918 29.1539 341.634 28.5159C342.368 27.8586 342.736 26.9499 342.736 25.7899V25.5869C342.736 24.4269 342.378 23.5279 341.663 22.8899C340.947 22.2326 339.913 21.9039 338.56 21.9039H333.021V29.4729Z" fill="white"/>
<path d="M355.637 40.4059C354.167 40.4059 352.853 40.1449 351.693 39.6229C350.533 39.1009 349.614 38.3179 348.938 37.2739C348.28 36.2106 347.952 34.8863 347.952 33.3009V32.6919H350.359V33.3009C350.359 34.9829 350.852 36.2396 351.838 37.0709C352.824 37.8829 354.09 38.2889 355.637 38.2889C357.222 38.2889 358.43 37.9313 359.262 37.2159C360.093 36.5006 360.509 35.6016 360.509 34.5189C360.509 33.7649 360.315 33.1656 359.929 32.7209C359.561 32.2763 359.039 31.9186 358.363 31.6479C357.686 31.3579 356.893 31.1066 355.985 30.8939L354.477 30.5169C353.297 30.2076 352.253 29.8306 351.345 29.3859C350.436 28.9413 349.721 28.3613 349.199 27.6459C348.696 26.9113 348.445 25.9736 348.445 24.8329C348.445 23.6923 348.725 22.7063 349.286 21.8749C349.866 21.0436 350.668 20.4056 351.693 19.9609C352.737 19.5163 353.935 19.2939 355.289 19.2939C356.661 19.2939 357.889 19.5356 358.972 20.0189C360.074 20.4829 360.934 21.1789 361.553 22.1069C362.191 23.0156 362.51 24.1659 362.51 25.5579V26.7759H360.103V25.5579C360.103 24.5719 359.89 23.7793 359.465 23.1799C359.059 22.5806 358.488 22.1359 357.754 21.8459C357.038 21.5559 356.217 21.4109 355.289 21.4109C353.955 21.4109 352.882 21.7106 352.07 22.3099C351.258 22.8899 350.852 23.7213 350.852 24.8039C350.852 25.5193 351.026 26.0993 351.374 26.5439C351.722 26.9886 352.215 27.3559 352.853 27.6459C353.491 27.9166 354.254 28.1583 355.144 28.3709L356.652 28.7479C357.831 28.9993 358.885 29.3473 359.813 29.7919C360.76 30.2173 361.514 30.8069 362.075 31.5609C362.635 32.2956 362.916 33.2623 362.916 34.4609C362.916 35.6596 362.616 36.7036 362.017 37.5929C361.417 38.4823 360.567 39.1783 359.465 39.6809C358.382 40.1643 357.106 40.4059 355.637 40.4059Z" fill="white"/>
<path fill-rule="evenodd" clip-rule="evenodd" d="M16.1317 57.9219C20.1684 59.8935 24.705 61 29.5 61C33.9725 61 38.2201 60.0373 42.047 58.3079L30.5331 0.0171665C30.1901 0.00575234 29.8458 0 29.5 0C28.8486 0 28.202 0.0204207 27.5608 0.060657L16.1317 57.9219ZM38.788 1.43998L49.1236 53.8497C50.249 52.9029 51.3051 51.8762 52.2829 50.7783L57.2943 17.9228C53.7589 10.1222 47.0361 4.07396 38.788 1.43998ZM19.2325 1.77135L9.02908 53.1098C7.74674 51.9481 6.56368 50.6788 5.49413 49.3161L0.974121 19.6822C4.133 11.3569 10.8317 4.77406 19.2325 1.77135Z" fill="url(#paint0_linear_613_31)"/>
<defs>
<linearGradient id="paint0_linear_613_31" x1="5.59053" y1="12" x2="48.7905" y2="50.0519" gradientUnits="userSpaceOnUse">
<stop stop-color="#06425C"/>
<stop offset="1" stop-color="#BA926D"/>
</linearGradient>
</defs>
</svg>
