<svg width="99" height="90" viewBox="0 0 99 90" fill="none" xmlns="http://www.w3.org/2000/svg">
<mask id="path-1-inside-1_623_31" fill="white">
<path d="M7.05913 43.5167C2.44366 42.739 -0.734424 38.3291 0.803366 33.9084C2.62467 28.6726 5.30213 23.7539 8.74422 19.3595C13.9354 12.7321 20.7011 7.50765 28.4259 4.16124C36.1507 0.814826 44.5896 -0.547328 52.975 0.19866C61.3603 0.944649 69.4262 3.77511 76.439 8.43262C83.4517 13.0901 89.1889 19.4269 93.1286 26.8666C97.0684 34.3064 99.0857 42.613 98.9972 51.031C98.9087 59.449 96.7171 67.7114 92.6218 75.0666C89.9063 79.9436 86.411 84.3192 82.2914 88.0285C78.8132 91.1604 73.5159 89.9414 71.0089 85.9889V85.9889C68.502 82.0363 69.7798 76.8571 72.9804 73.4419C74.8486 71.4484 76.4735 69.2266 77.8128 66.8211C80.5336 61.9346 81.9896 56.4454 82.0484 50.8528C82.1072 45.2602 80.767 39.7416 78.1495 34.7989C75.5321 29.8562 71.7206 25.6463 67.0616 22.552C62.4026 19.4578 57.0439 17.5773 51.473 17.0817C45.9021 16.5861 40.2956 17.4911 35.1635 19.7143C30.0315 21.9375 25.5366 25.4085 22.0878 29.8115C20.3901 31.9789 18.9723 34.3383 17.8594 36.8334C15.9528 41.108 11.6746 44.2945 7.05913 43.5167V43.5167Z"/>
</mask>
<path d="M7.05913 43.5167C2.44366 42.739 -0.734424 38.3291 0.803366 33.9084C2.62467 28.6726 5.30213 23.7539 8.74422 19.3595C13.9354 12.7321 20.7011 7.50765 28.4259 4.16124C36.1507 0.814826 44.5896 -0.547328 52.975 0.19866C61.3603 0.944649 69.4262 3.77511 76.439 8.43262C83.4517 13.0901 89.1889 19.4269 93.1286 26.8666C97.0684 34.3064 99.0857 42.613 98.9972 51.031C98.9087 59.449 96.7171 67.7114 92.6218 75.0666C89.9063 79.9436 86.411 84.3192 82.2914 88.0285C78.8132 91.1604 73.5159 89.9414 71.0089 85.9889V85.9889C68.502 82.0363 69.7798 76.8571 72.9804 73.4419C74.8486 71.4484 76.4735 69.2266 77.8128 66.8211C80.5336 61.9346 81.9896 56.4454 82.0484 50.8528C82.1072 45.2602 80.767 39.7416 78.1495 34.7989C75.5321 29.8562 71.7206 25.6463 67.0616 22.552C62.4026 19.4578 57.0439 17.5773 51.473 17.0817C45.9021 16.5861 40.2956 17.4911 35.1635 19.7143C30.0315 21.9375 25.5366 25.4085 22.0878 29.8115C20.3901 31.9789 18.9723 34.3383 17.8594 36.8334C15.9528 41.108 11.6746 44.2945 7.05913 43.5167V43.5167Z" stroke="url(#paint0_linear_623_31)" stroke-width="4" mask="url(#path-1-inside-1_623_31)"/>
<defs>
<linearGradient id="paint0_linear_623_31" x1="22.6108" y1="7.03165" x2="99" y2="69.3576" gradientUnits="userSpaceOnUse">
<stop stop-color="#0172A4"/>
<stop offset="1" stop-color="#FF9839" stop-opacity="0"/>
</linearGradient>
</defs>
</svg>
