<svg width="169" height="101" viewBox="0 0 169 101" fill="none" xmlns="http://www.w3.org/2000/svg">
<path d="M14.3555 89H8.76953V66.5977H0.351562V60.9922H22.7539V66.5977H14.3555V89ZM48.9219 89H29.7227V60.9922H48.9219V66.5977H35.3281V72.2031H44.5273V77.8086H35.3281V83.3945H48.9219V89ZM73.332 77.8086V72.2031C73.332 71.4349 73.1823 70.7122 72.8828 70.0352C72.5964 69.3451 72.1992 68.7461 71.6914 68.2383C71.1836 67.7305 70.5846 67.3333 69.8945 67.0469C69.2174 66.7474 68.4948 66.5977 67.7266 66.5977C66.9583 66.5977 66.2292 66.7474 65.5391 67.0469C64.862 67.3333 64.2695 67.7305 63.7617 68.2383C63.2539 68.7461 62.8503 69.3451 62.5508 70.0352C62.2643 70.7122 62.1211 71.4349 62.1211 72.2031V77.8086H73.332ZM78.9375 89H73.332V83.3945H62.1211V89H56.5352V72.2031C56.5352 70.6536 56.8281 69.2018 57.4141 67.8477C58 66.4805 58.7943 65.2891 59.7969 64.2734C60.8125 63.2578 61.9974 62.457 63.3516 61.8711C64.7188 61.2852 66.1771 60.9922 67.7266 60.9922C69.276 60.9922 70.7279 61.2852 72.082 61.8711C73.4492 62.457 74.6406 63.2578 75.6562 64.2734C76.6719 65.2891 77.4727 66.4805 78.0586 67.8477C78.6445 69.2018 78.9375 70.6536 78.9375 72.2031V89ZM115.594 89H110.008V69C110.008 68.6094 109.93 68.2448 109.773 67.9062C109.63 67.5677 109.428 67.2747 109.168 67.0273C108.921 66.7669 108.628 66.5651 108.289 66.4219C107.951 66.2786 107.586 66.207 107.195 66.207C106.805 66.207 106.44 66.2786 106.102 66.4219C105.763 66.5651 105.464 66.7669 105.203 67.0273C104.956 67.2747 104.76 67.5677 104.617 67.9062C104.474 68.2448 104.402 68.6094 104.402 69V89H98.7969V69C98.7969 68.6094 98.7253 68.2448 98.582 67.9062C98.4388 67.5677 98.237 67.2747 97.9766 67.0273C97.7292 66.7669 97.4362 66.5651 97.0977 66.4219C96.7591 66.2786 96.3945 66.207 96.0039 66.207C95.6133 66.207 95.2487 66.2786 94.9102 66.4219C94.5716 66.5651 94.2721 66.7669 94.0117 67.0273C93.7643 67.2747 93.569 67.5677 93.4258 67.9062C93.2826 68.2448 93.2109 68.6094 93.2109 69V89H87.6055V69C87.6055 67.8411 87.8203 66.7539 88.25 65.7383C88.6927 64.7096 89.2917 63.8177 90.0469 63.0625C90.8151 62.2943 91.707 61.6953 92.7227 61.2656C93.7513 60.8229 94.8451 60.6016 96.0039 60.6016C97.0456 60.6016 98.0482 60.7904 99.0117 61.168C99.9753 61.5326 100.841 62.0664 101.609 62.7695C102.378 62.0664 103.237 61.5326 104.188 61.168C105.151 60.7904 106.154 60.6016 107.195 60.6016C108.354 60.6016 109.441 60.8229 110.457 61.2656C111.486 61.6953 112.378 62.2943 113.133 63.0625C113.901 63.8177 114.5 64.7096 114.93 65.7383C115.372 66.7539 115.594 67.8411 115.594 69V89Z" fill="white"/>
<mask id="path-2-inside-1_624_171" fill="white">
<path d="M77.0591 43.5167C72.4437 42.739 69.2656 38.3291 70.8034 33.9084C72.6247 28.6726 75.3021 23.7539 78.7442 19.3595C83.9354 12.7321 90.7011 7.50765 98.4259 4.16124C106.151 0.814826 114.59 -0.547328 122.975 0.19866C131.36 0.944649 139.426 3.77511 146.439 8.43262C153.452 13.0901 159.189 19.4269 163.129 26.8666C167.068 34.3064 169.086 42.613 168.997 51.031C168.909 59.4491 166.717 67.7114 162.622 75.0666C159.906 79.9436 156.411 84.3192 152.291 88.0285C148.813 91.1604 143.516 89.9414 141.009 85.9889C138.502 82.0363 139.78 76.8571 142.98 73.4419C144.849 71.4484 146.473 69.2266 147.813 66.8211C150.534 61.9346 151.99 56.4454 152.048 50.8528C152.107 45.2602 150.767 39.7416 148.15 34.7989C145.532 29.8562 141.721 25.6463 137.062 22.552C132.403 19.4578 127.044 17.5773 121.473 17.0817C115.902 16.5861 110.296 17.4911 105.164 19.7143C100.031 21.9375 95.5366 25.4085 92.0878 29.8115C90.3901 31.9789 88.9723 34.3383 87.8594 36.8334C85.9528 41.108 81.6746 44.2945 77.0591 43.5167Z"/>
</mask>
<path d="M77.0591 43.5167C72.4437 42.739 69.2656 38.3291 70.8034 33.9084C72.6247 28.6726 75.3021 23.7539 78.7442 19.3595C83.9354 12.7321 90.7011 7.50765 98.4259 4.16124C106.151 0.814826 114.59 -0.547328 122.975 0.19866C131.36 0.944649 139.426 3.77511 146.439 8.43262C153.452 13.0901 159.189 19.4269 163.129 26.8666C167.068 34.3064 169.086 42.613 168.997 51.031C168.909 59.4491 166.717 67.7114 162.622 75.0666C159.906 79.9436 156.411 84.3192 152.291 88.0285C148.813 91.1604 143.516 89.9414 141.009 85.9889C138.502 82.0363 139.78 76.8571 142.98 73.4419C144.849 71.4484 146.473 69.2266 147.813 66.8211C150.534 61.9346 151.99 56.4454 152.048 50.8528C152.107 45.2602 150.767 39.7416 148.15 34.7989C145.532 29.8562 141.721 25.6463 137.062 22.552C132.403 19.4578 127.044 17.5773 121.473 17.0817C115.902 16.5861 110.296 17.4911 105.164 19.7143C100.031 21.9375 95.5366 25.4085 92.0878 29.8115C90.3901 31.9789 88.9723 34.3383 87.8594 36.8334C85.9528 41.108 81.6746 44.2945 77.0591 43.5167Z" stroke="url(#paint0_linear_624_171)" stroke-width="4" mask="url(#path-2-inside-1_624_171)"/>
<defs>
<linearGradient id="paint0_linear_624_171" x1="92.6108" y1="7.03165" x2="169" y2="69.3576" gradientUnits="userSpaceOnUse">
<stop stop-color="#0172A4"/>
<stop offset="1" stop-color="#FF9839" stop-opacity="0"/>
</linearGradient>
</defs>
</svg>
