<svg width="517" height="117" viewBox="0 0 517 117" fill="none" xmlns="http://www.w3.org/2000/svg">
<g filter="url(#filter0_d_613_37)">
<path d="M84.4531 76.5469L82.616 75.7562L82.6112 75.7676L84.4531 76.5469ZM80.8594 81.8984L82.2736 83.3127L80.8594 81.8984ZM75.5078 85.4922L76.2871 87.3342L76.2985 87.3293L75.5078 85.4922ZM62.9688 85.6875L62.2525 87.5549L62.261 87.5581L62.9688 85.6875ZM57.8125 82.4844L59.1628 81.009L57.8125 79.7731L56.4622 81.009L57.8125 82.4844ZM40.0391 85.4922L39.2399 87.3256L39.254 87.3317L39.2682 87.3376L40.0391 85.4922ZM34.6875 81.8984L33.2613 83.3005L33.2732 83.3127L33.2854 83.3247L34.6875 81.8984ZM31.0938 76.5469L29.2483 77.3178L29.2542 77.332L29.2604 77.346L31.0938 76.5469ZM29.8047 29.9844V27.9844H27.8047V29.9844H29.8047ZM41.0156 29.9844H43.0156V27.9844H41.0156V29.9844ZM41.4453 72.2109L39.5931 72.9655L39.5982 72.9779L39.6034 72.9902L41.4453 72.2109ZM42.6172 74.0078L41.1672 75.3853L41.2025 75.4225L41.2397 75.4578L42.6172 74.0078ZM44.4141 75.1797L43.6348 77.0216L44.4141 75.1797ZM50.5469 74.0078L49.1327 72.5936L50.5469 74.0078ZM51.7578 72.2109L53.5997 72.9902L53.605 72.9779L53.61 72.9655L51.7578 72.2109ZM52.1875 29.9844V27.9844H50.1875V29.9844H52.1875ZM63.3984 29.9844H65.3984V27.9844H63.3984V29.9844ZM63.8281 72.2109L61.9759 72.9655L61.981 72.9779L61.9862 72.9902L63.8281 72.2109ZM65 74.0078L63.55 75.3853L63.5853 75.4225L63.6225 75.4578L65 74.0078ZM72.9297 74.0078L74.3439 75.422L72.9297 74.0078ZM74.1406 72.2109L72.313 71.3987L72.3057 71.4151L72.2987 71.4317L74.1406 72.2109ZM74.6094 29.9844V27.9844H72.6094V29.9844H74.6094ZM85.7812 29.9844H87.7812V27.9844H85.7812V29.9844ZM83.7812 69.9844C83.7812 72.0399 83.3902 73.9574 82.616 75.7562L86.2902 77.3375C87.2869 75.0218 87.7812 72.5643 87.7812 69.9844H83.7812ZM82.6112 75.7676C81.8506 77.5653 80.7967 79.1327 79.4452 80.4842L82.2736 83.3127C83.995 81.5913 85.3369 79.591 86.2951 77.3262L82.6112 75.7676ZM79.4452 80.4842C78.1226 81.8068 76.5532 82.8649 74.7172 83.6551L76.2985 87.3293C78.577 86.3486 80.5754 85.0109 82.2736 83.3127L79.4452 80.4842ZM74.7285 83.6503C72.9563 84.4 71.0482 84.7812 68.9844 84.7812V88.7812C71.556 88.7812 73.9968 88.3031 76.2871 87.3341L74.7285 83.6503ZM68.9844 84.7812C67.1401 84.7812 65.3749 84.4596 63.6765 83.8169L62.261 87.5581C64.4168 88.3738 66.662 88.7812 68.9844 88.7812V84.7812ZM63.685 83.8202C62.0234 83.1828 60.5187 82.25 59.1628 81.009L56.4622 83.9597C58.1792 85.5313 60.112 86.7338 62.2525 87.5548L63.685 83.8202ZM56.4622 81.009C55.1108 82.2459 53.5965 83.1785 51.9094 83.8169L53.325 87.5581C55.492 86.7381 57.4413 85.5354 59.1628 83.9597L56.4622 81.009ZM51.9094 83.8169C50.211 84.4596 48.4458 84.7812 46.6016 84.7812V88.7812C48.924 88.7812 51.1692 88.3738 53.325 87.5581L51.9094 83.8169ZM46.6016 84.7812C44.5378 84.7812 42.6134 84.4001 40.81 83.6467L39.2682 87.3376C41.5793 88.3031 44.0299 88.7812 46.6016 88.7812V84.7812ZM40.8382 83.6588C39.0247 82.8683 37.4467 81.8063 36.0896 80.4722L33.2854 83.3247C35.0013 85.0114 36.991 86.3453 39.2399 87.3256L40.8382 83.6588ZM36.1137 80.4964C34.7797 79.1393 33.7177 77.5613 32.9271 75.7477L29.2604 77.346C30.2407 79.595 31.5745 81.5847 33.2613 83.3005L36.1137 80.4964ZM32.9392 75.776C32.1859 73.9726 31.8047 72.0481 31.8047 69.9844H27.8047C27.8047 72.5561 28.2829 75.0066 29.2483 77.3178L32.9392 75.776ZM31.8047 69.9844V29.9844H27.8047V69.9844H31.8047ZM29.8047 31.9844H41.0156V27.9844H29.8047V31.9844ZM39.0156 29.9844V69.9844H43.0156V29.9844H39.0156ZM39.0156 69.9844C39.0156 71.0167 39.2062 72.0158 39.5931 72.9655L43.2975 71.4563C43.1115 70.9998 43.0156 70.5146 43.0156 69.9844H39.0156ZM39.6034 72.9902C39.9812 73.8834 40.503 74.6861 41.1672 75.3853L44.0672 72.6303C43.7418 72.2878 43.4823 71.8927 43.2872 71.4317L39.6034 72.9902ZM41.2397 75.4578C41.9389 76.122 42.7416 76.6438 43.6348 77.0216L45.1933 73.3378C44.7323 73.1427 44.3372 72.8832 43.9947 72.5578L41.2397 75.4578ZM43.6348 77.0216C44.5736 77.4188 45.5696 77.6094 46.6016 77.6094V73.6094C46.071 73.6094 45.6087 73.5135 45.1933 73.3378L43.6348 77.0216ZM46.6016 77.6094C47.6335 77.6094 48.6295 77.4188 49.5683 77.0216L48.0098 73.3378C47.5945 73.5135 47.1321 73.6094 46.6016 73.6094V77.6094ZM49.5683 77.0216C50.4704 76.64 51.275 76.1081 51.9611 75.422L49.1327 72.5936C48.8291 72.8971 48.4619 73.1465 48.0098 73.3378L49.5683 77.0216ZM51.9611 75.422C52.6637 74.7194 53.2127 73.905 53.5997 72.9902L49.9159 71.4317C49.73 71.8711 49.4717 72.2545 49.1327 72.5936L51.9611 75.422ZM53.61 72.9655C53.9969 72.0158 54.1875 71.0167 54.1875 69.9844H50.1875C50.1875 70.5146 50.0916 70.9998 49.9056 71.4563L53.61 72.9655ZM54.1875 69.9844V29.9844H50.1875V69.9844H54.1875ZM52.1875 31.9844H63.3984V27.9844H52.1875V31.9844ZM61.3984 29.9844V69.9844H65.3984V29.9844H61.3984ZM61.3984 69.9844C61.3984 71.0167 61.589 72.0158 61.9759 72.9655L65.6803 71.4563C65.4943 70.9998 65.3984 70.5146 65.3984 69.9844H61.3984ZM61.9862 72.9902C62.3641 73.8834 62.8858 74.6861 63.55 75.3853L66.45 72.6303C66.1246 72.2878 65.8651 71.8927 65.6701 71.4317L61.9862 72.9902ZM63.6225 75.4578C64.3217 76.122 65.1244 76.6438 66.0176 77.0216L67.5762 73.3378C67.1151 73.1427 66.72 72.8832 66.3775 72.5578L63.6225 75.4578ZM66.0176 77.0216C66.9564 77.4188 67.9524 77.6094 68.9844 77.6094V73.6094C68.4538 73.6094 67.9915 73.5135 67.5762 73.3378L66.0176 77.0216ZM68.9844 77.6094C70.0163 77.6094 71.0123 77.4188 71.9512 77.0216L70.3926 73.3378C69.9773 73.5135 69.5149 73.6094 68.9844 73.6094V77.6094ZM71.9512 77.0216C72.8532 76.64 73.6578 76.1081 74.3439 75.422L71.5155 72.5936C71.2119 72.8971 70.8447 73.1465 70.3926 73.3378L71.9512 77.0216ZM74.3439 75.422C75.0465 74.7194 75.5955 73.905 75.9826 72.9902L72.2987 71.4317C72.1128 71.8711 71.8545 72.2545 71.5155 72.5936L74.3439 75.422ZM75.9682 73.0232C76.3962 72.0604 76.6094 71.041 76.6094 69.9844H72.6094C72.6094 70.4902 72.5101 70.9553 72.313 71.3987L75.9682 73.0232ZM76.6094 69.9844V29.9844H72.6094V69.9844H76.6094ZM74.6094 31.9844H85.7812V27.9844H74.6094V31.9844ZM83.7812 29.9844V69.9844H87.7812V29.9844H83.7812ZM136.789 63.6172V65.6172H138.789V63.6172H136.789ZM135.891 48.0703L134.043 48.8371L134.052 48.8583L134.062 48.8793L135.891 48.0703ZM129.914 42.0938L129.105 43.9228L129.126 43.9321L129.147 43.9409L129.914 42.0938ZM121.203 42.0938L121.982 43.9357L121.991 43.9321L121.999 43.9284L121.203 42.0938ZM115.227 48.0703L113.392 47.2741L113.388 47.2826L113.385 47.291L115.227 48.0703ZM114.367 63.6172H112.367V65.6172H114.367V63.6172ZM148 86V88H150V86H148ZM136.789 86H134.789V88H136.789V86ZM136.789 74.7891H138.789V72.7891H136.789V74.7891ZM114.367 74.7891V72.7891H112.367V74.7891H114.367ZM114.367 86V88H116.367V86H114.367ZM103.195 86H101.195V88H103.195V86ZM104.953 43.6953L106.789 44.4895L106.791 44.4832L104.953 43.6953ZM109.719 36.5469L108.305 35.1326L108.295 35.1418L109.719 36.5469ZM116.828 31.7422L116.04 29.9039L116.034 29.9066L116.828 31.7422ZM134.289 31.7422L133.495 33.5777L133.501 33.5805L134.289 31.7422ZM146.242 43.6953L144.404 44.4832L144.407 44.4895L146.242 43.6953ZM138.789 63.6172V52.4062H134.789V63.6172H138.789ZM138.789 52.4062C138.789 50.6019 138.436 48.8799 137.72 47.2613L134.062 48.8793C134.544 49.969 134.789 51.1377 134.789 52.4062H138.789ZM137.738 47.3036C137.069 45.6912 136.13 44.2708 134.922 43.0623L132.094 45.8908C132.916 46.7136 133.567 47.689 134.043 48.8371L137.738 47.3036ZM134.922 43.0623C133.714 41.8539 132.293 40.9158 130.681 40.2466L129.147 43.9409C130.295 44.4175 131.271 45.068 132.094 45.8908L134.922 43.0623ZM130.723 40.2647C129.104 39.5487 127.382 39.1953 125.578 39.1953V43.1953C126.847 43.1953 128.015 43.4408 129.105 43.9228L130.723 40.2647ZM125.578 39.1953C123.774 39.1953 122.044 39.5487 120.407 40.2591L121.999 43.9284C123.123 43.4409 124.31 43.1953 125.578 43.1953V39.1953ZM120.424 40.2518C118.838 40.9227 117.436 41.8602 116.234 43.0623L119.063 45.8908C119.892 45.0616 120.86 44.4107 121.982 43.9357L120.424 40.2518ZM116.234 43.0623C115.032 44.2641 114.086 45.6744 113.392 47.2741L117.061 48.8665C117.565 47.7058 118.233 46.7203 119.063 45.8908L116.234 43.0623ZM113.385 47.291C112.703 48.9028 112.367 50.6143 112.367 52.4062H116.367C116.367 51.1252 116.605 49.9461 117.068 48.8496L113.385 47.291ZM112.367 52.4062V63.6172H116.367V52.4062H112.367ZM114.367 65.6172H136.789V61.6172H114.367V65.6172ZM148 84H136.789V88H148V84ZM138.789 86V74.7891H134.789V86H138.789ZM136.789 72.7891H114.367V76.7891H136.789V72.7891ZM112.367 74.7891V86H116.367V74.7891H112.367ZM114.367 84H103.195V88H114.367V84ZM105.195 86V52.4062H101.195V86H105.195ZM105.195 52.4062C105.195 49.5665 105.731 46.9346 106.789 44.4895L103.118 42.9011C101.832 45.8727 101.195 49.0481 101.195 52.4062H105.195ZM106.791 44.4832C107.869 41.9688 109.32 39.7977 111.142 37.9519L108.295 35.1418C106.107 37.3585 104.381 39.9531 103.115 42.9075L106.791 44.4832ZM111.133 37.9611C112.981 36.113 115.139 34.6523 117.622 33.5777L116.034 29.9066C113.101 31.1758 110.519 32.9183 108.305 35.1327L111.133 37.9611ZM117.616 33.5805C120.091 32.5197 122.738 31.9844 125.578 31.9844V27.9844C122.22 27.9844 119.034 28.6209 116.04 29.9039L117.616 33.5805ZM125.578 31.9844C128.418 31.9844 131.05 32.5198 133.495 33.5777L135.083 29.9066C132.112 28.6209 128.936 27.9844 125.578 27.9844V31.9844ZM133.501 33.5805C136.01 34.6558 138.178 36.1162 140.023 37.9611L142.852 35.1327C140.634 32.9151 138.037 31.1724 135.077 29.9039L133.501 33.5805ZM140.023 37.9611C141.868 39.806 143.329 41.9742 144.404 44.4832L148.08 42.9075C146.812 39.9477 145.069 37.3502 142.852 35.1327L140.023 37.9611ZM144.407 44.4895C145.465 46.9346 146 49.5665 146 52.4062H150C150 49.0481 149.364 45.8727 148.078 42.9011L144.407 44.4895ZM146 52.4062V86H150V52.4062H146ZM176.938 41.1953V39.1953H174.938V41.1953H176.938ZM176.938 63.6172H174.938V65.6172H176.938V63.6172ZM192.484 62.7578L193.264 64.5997L193.279 64.5934L193.293 64.5869L192.484 62.7578ZM198.422 56.7812L196.587 55.9851L196.584 55.9935L196.58 56.002L198.422 56.7812ZM198.422 48.0703L196.575 48.8371L196.584 48.8583L196.593 48.8793L198.422 48.0703ZM192.484 42.0938L191.675 43.9228L191.69 43.9294L191.705 43.9357L192.484 42.0938ZM176.938 86V88H178.938V86H176.938ZM165.727 86H163.727V88H165.727V86ZM165.727 29.9844V27.9844H163.727V29.9844H165.727ZM194.086 30.8047L193.533 32.7267L193.545 32.7302L193.557 32.7336L194.086 30.8047ZM199.398 33.0703L198.365 34.7829L198.381 34.7925L198.397 34.8018L199.398 33.0703ZM203.93 36.5859L202.502 37.9866L202.515 38.0002L202.529 38.0136L203.93 36.5859ZM207.445 41.1172L205.714 42.1182L205.72 42.1283L205.726 42.1383L207.445 41.1172ZM209.711 46.4688L207.782 46.9972L207.785 47.0095L207.789 47.0217L209.711 46.4688ZM209.789 58.0312L207.859 57.5073L207.855 57.5202L207.852 57.5332L209.789 58.0312ZM207.719 63.2266L205.97 62.2553L205.965 62.266L205.959 62.2767L207.719 63.2266ZM200.062 71.3516L198.998 69.6586L197.557 70.565L198.221 72.1323L200.062 71.3516ZM206.273 86V88H209.294L208.115 85.2193L206.273 86ZM194.359 86L192.524 86.794L193.045 88H194.359V86ZM189.477 74.7109L191.312 73.917L190.787 72.7027L189.464 72.711L189.477 74.7109ZM176.938 74.7891L176.925 72.7891L174.938 72.8015V74.7891H176.938ZM174.938 41.1953V63.6172H178.938V41.1953H174.938ZM176.938 65.6172H188.148V61.6172H176.938V65.6172ZM188.148 65.6172C189.94 65.6172 191.652 65.2817 193.264 64.5997L191.705 60.9159C190.609 61.3798 189.429 61.6172 188.148 61.6172V65.6172ZM193.293 64.5869C194.866 63.8913 196.258 62.9456 197.453 61.7502L194.625 58.9217C193.789 59.7575 192.811 60.4264 191.675 60.9287L193.293 64.5869ZM197.453 61.7502C198.655 60.548 199.593 59.1462 200.264 57.5605L196.58 56.002C196.105 57.1247 195.454 58.0926 194.625 58.9217L197.453 61.7502ZM200.257 57.5774C200.967 55.9405 201.32 54.2107 201.32 52.4062H197.32C197.32 53.6748 197.075 54.8615 196.587 55.9851L200.257 57.5774ZM201.32 52.4062C201.32 50.6019 200.967 48.8799 200.251 47.2613L196.593 48.8793C197.075 49.969 197.32 51.1377 197.32 52.4062H201.32ZM200.269 47.3036C199.6 45.6912 198.662 44.2708 197.453 43.0623L194.625 45.8908C195.448 46.7136 196.098 47.689 196.575 48.8371L200.269 47.3036ZM197.453 43.0623C196.251 41.8602 194.849 40.9227 193.264 40.2518L191.705 43.9357C192.828 44.4107 193.796 45.0616 194.625 45.8908L197.453 43.0623ZM193.293 40.2647C191.675 39.5487 189.953 39.1953 188.148 39.1953V43.1953C189.417 43.1953 190.586 43.4408 191.675 43.9228L193.293 40.2647ZM188.148 39.1953H176.938V43.1953H188.148V39.1953ZM176.938 84H165.727V88H176.938V84ZM167.727 86V29.9844H163.727V86H167.727ZM165.727 31.9844H188.148V27.9844H165.727V31.9844ZM188.148 31.9844C190.026 31.9844 191.819 32.2336 193.533 32.7267L194.639 28.8826C192.551 28.282 190.385 27.9844 188.148 27.9844V31.9844ZM193.557 32.7336C195.286 33.2073 196.887 33.891 198.365 34.7829L200.431 31.3577C198.629 30.2705 196.688 29.4438 194.614 28.8758L193.557 32.7336ZM198.397 34.8018C199.907 35.6744 201.274 36.7349 202.502 37.9866L205.357 35.1853C203.877 33.6766 202.223 32.3933 200.399 31.3388L198.397 34.8018ZM202.529 38.0136C203.781 39.2417 204.841 40.6087 205.714 42.1182L209.177 40.1162C208.122 38.2923 206.839 36.6385 205.33 35.1583L202.529 38.0136ZM205.726 42.1383C206.622 43.6482 207.308 45.2661 207.782 46.9972L211.64 45.9403C211.072 43.8694 210.248 41.9195 209.165 40.0961L205.726 42.1383ZM207.789 47.0217C208.282 48.7359 208.531 50.5285 208.531 52.4062H212.531C212.531 50.1694 212.234 48.0037 211.633 45.9158L207.789 47.0217ZM208.531 52.4062C208.531 54.16 208.306 55.8587 207.859 57.5073L211.719 58.5552C212.261 56.558 212.531 54.5067 212.531 52.4062H208.531ZM207.852 57.5332C207.426 59.1914 206.799 60.7641 205.97 62.2553L209.467 64.1978C210.462 62.4077 211.215 60.5169 211.726 58.5293L207.852 57.5332ZM205.959 62.2767C205.158 63.761 204.167 65.1298 202.983 66.3854L205.892 69.1303C207.312 67.6254 208.509 65.9734 209.479 64.1764L205.959 62.2767ZM202.983 66.3854C201.797 67.6421 200.47 68.7325 198.998 69.6586L201.127 73.0445C202.884 71.9394 204.474 70.634 205.892 69.1303L202.983 66.3854ZM198.221 72.1323L204.432 86.7807L208.115 85.2193L201.904 70.5708L198.221 72.1323ZM206.273 84H194.359V88H206.273V84ZM196.195 85.206L191.312 73.917L187.641 75.5049L192.524 86.794L196.195 85.206ZM189.464 72.711L176.925 72.7891L176.95 76.789L189.489 76.7109L189.464 72.711ZM174.938 74.7891V86H178.938V74.7891H174.938ZM237.125 41.1953V39.1953H235.125V41.1953H237.125ZM237.125 63.6172H235.125V65.6172H237.125V63.6172ZM252.672 62.7578L253.451 64.5997L253.466 64.5934L253.481 64.5869L252.672 62.7578ZM258.609 56.7812L256.775 55.9851L256.771 55.9935L256.767 56.002L258.609 56.7812ZM258.609 48.0703L256.762 48.8371L256.771 48.8583L256.78 48.8793L258.609 48.0703ZM252.672 42.0938L251.863 43.9228L251.878 43.9294L251.893 43.9357L252.672 42.0938ZM237.125 86V88H239.125V86H237.125ZM225.914 86H223.914V88H225.914V86ZM225.914 29.9844V27.9844H223.914V29.9844H225.914ZM254.273 30.8047L253.721 32.7267L253.733 32.7302L253.745 32.7336L254.273 30.8047ZM259.586 33.0703L258.553 34.7829L258.569 34.7925L258.585 34.8018L259.586 33.0703ZM264.117 36.5859L262.69 37.9866L262.703 38.0002L262.717 38.0136L264.117 36.5859ZM267.633 41.1172L265.901 42.1182L265.907 42.1283L265.913 42.1383L267.633 41.1172ZM269.898 46.4688L267.97 46.9972L267.973 47.0095L267.976 47.0217L269.898 46.4688ZM269.977 58.0312L268.046 57.5073L268.043 57.5202L268.04 57.5332L269.977 58.0312ZM267.906 63.2266L266.158 62.2553L266.152 62.266L266.146 62.2767L267.906 63.2266ZM260.25 71.3516L259.185 69.6586L257.744 70.565L258.409 72.1323L260.25 71.3516ZM266.461 86V88H269.481L268.302 85.2193L266.461 86ZM254.547 86L252.711 86.794L253.233 88H254.547V86ZM249.664 74.7109L251.5 73.917L250.975 72.7027L249.652 72.711L249.664 74.7109ZM237.125 74.7891L237.113 72.7891L235.125 72.8015V74.7891H237.125ZM235.125 41.1953V63.6172H239.125V41.1953H235.125ZM237.125 65.6172H248.336V61.6172H237.125V65.6172ZM248.336 65.6172C250.128 65.6172 251.839 65.2817 253.451 64.5997L251.893 60.9159C250.796 61.3798 249.617 61.6172 248.336 61.6172V65.6172ZM253.481 64.5869C255.054 63.8913 256.445 62.9456 257.641 61.7502L254.812 58.9217C253.977 59.7575 252.999 60.4264 251.863 60.9287L253.481 64.5869ZM257.641 61.7502C258.843 60.548 259.78 59.1462 260.451 57.5605L256.767 56.002C256.292 57.1247 255.641 58.0926 254.812 58.9217L257.641 61.7502ZM260.444 57.5774C261.154 55.9405 261.508 54.2107 261.508 52.4062H257.508C257.508 53.6748 257.262 54.8615 256.775 55.9851L260.444 57.5774ZM261.508 52.4062C261.508 50.6019 261.154 48.8799 260.438 47.2613L256.78 48.8793C257.262 49.969 257.508 51.1377 257.508 52.4062H261.508ZM260.457 47.3036C259.787 45.6912 258.849 44.2708 257.641 43.0623L254.812 45.8908C255.635 46.7136 256.286 47.689 256.762 48.8371L260.457 47.3036ZM257.641 43.0623C256.439 41.8602 255.037 40.9227 253.451 40.2518L251.893 43.9357C253.015 44.4107 253.983 45.0616 254.812 45.8908L257.641 43.0623ZM253.481 40.2647C251.862 39.5487 250.14 39.1953 248.336 39.1953V43.1953C249.604 43.1953 250.773 43.4408 251.863 43.9228L253.481 40.2647ZM248.336 39.1953H237.125V43.1953H248.336V39.1953ZM237.125 84H225.914V88H237.125V84ZM227.914 86V29.9844H223.914V86H227.914ZM225.914 31.9844H248.336V27.9844H225.914V31.9844ZM248.336 31.9844C250.214 31.9844 252.006 32.2336 253.721 32.7267L254.826 28.8826C252.738 28.282 250.573 27.9844 248.336 27.9844V31.9844ZM253.745 32.7336C255.474 33.2073 257.074 33.891 258.553 34.7829L260.619 31.3577C258.816 30.2705 256.875 29.4438 254.802 28.8758L253.745 32.7336ZM258.585 34.8018C260.094 35.6744 261.461 36.7349 262.69 37.9866L265.545 35.1853C264.065 33.6766 262.411 32.3933 260.587 31.3388L258.585 34.8018ZM262.717 38.0136C263.968 39.2417 265.029 40.6087 265.901 42.1182L269.364 40.1162C268.31 38.2923 267.027 36.6385 265.518 35.1583L262.717 38.0136ZM265.913 42.1383C266.81 43.6482 267.495 45.2661 267.97 46.9972L271.827 45.9403C271.26 43.8694 270.435 41.9195 269.353 40.0961L265.913 42.1383ZM267.976 47.0217C268.47 48.7359 268.719 50.5285 268.719 52.4062H272.719C272.719 50.1694 272.421 48.0037 271.82 45.9158L267.976 47.0217ZM268.719 52.4062C268.719 54.16 268.494 55.8587 268.046 57.5073L271.907 58.5552C272.449 56.558 272.719 54.5067 272.719 52.4062H268.719ZM268.04 57.5332C267.613 59.1914 266.986 60.7641 266.158 62.2553L269.655 64.1978C270.649 62.4077 271.402 60.5169 271.914 58.5293L268.04 57.5332ZM266.146 62.2767C265.345 63.761 264.355 65.1298 263.17 66.3854L266.08 69.1303C267.499 67.6254 268.697 65.9734 269.666 64.1764L266.146 62.2767ZM263.17 66.3854C261.985 67.6421 260.657 68.7325 259.185 69.6586L261.315 73.0445C263.072 71.9394 264.661 70.634 266.08 69.1303L263.17 66.3854ZM258.409 72.1323L264.62 86.7807L268.302 85.2193L262.091 70.5708L258.409 72.1323ZM266.461 84H254.547V88H266.461V84ZM256.383 85.206L251.5 73.917L247.828 75.5049L252.711 86.794L256.383 85.206ZM249.652 72.711L237.113 72.7891L237.137 76.789L249.677 76.7109L249.652 72.711ZM235.125 74.7891V86H239.125V74.7891H235.125ZM297.312 86V88H299.312V86H297.312ZM286.102 86H284.102V88H286.102V86ZM286.102 29.9844V27.9844H284.102V29.9844H286.102ZM297.312 29.9844H299.312V27.9844H297.312V29.9844ZM297.312 84H286.102V88H297.312V84ZM288.102 86V29.9844H284.102V86H288.102ZM286.102 31.9844H297.312V27.9844H286.102V31.9844ZM295.312 29.9844V86H299.312V29.9844H295.312ZM369.57 65.9219L367.646 65.3751L367.643 65.3887L369.57 65.9219ZM366.68 72.8359L368.406 73.8463L368.411 73.8372L366.68 72.8359ZM356.289 83.2656L357.299 84.9917L357.307 84.9871L357.315 84.9825L356.289 83.2656ZM349.375 86.1562L348.847 84.2272L348.838 84.2298L348.828 84.2324L349.375 86.1562ZM333.984 86.1562L334.531 84.2324L334.518 84.2286L333.984 86.1562ZM327.07 83.2656L326.044 84.9825L326.057 84.9898L326.069 84.997L327.07 83.2656ZM316.641 72.8359L314.909 73.8372L314.916 73.8496L314.924 73.8618L316.641 72.8359ZM313.711 65.9219L311.782 66.4498L311.785 66.4619L311.789 66.474L313.711 65.9219ZM313.711 50.5312L311.787 49.9845L311.784 49.9939L311.782 50.0033L313.711 50.5312ZM316.641 43.6172L314.924 42.5913L314.919 42.599L314.915 42.6068L316.641 43.6172ZM327.07 33.2266L326.069 31.4952L326.06 31.5005L327.07 33.2266ZM333.984 30.3359L334.518 32.2636L334.531 32.2597L333.984 30.3359ZM349.375 30.3359L348.828 32.2597L348.838 32.2624L348.847 32.265L349.375 30.3359ZM369.57 50.5312L367.641 51.0592L367.644 51.0686L367.647 51.078L369.57 50.5312ZM358.086 51.3125L356.248 52.1003L356.251 52.1083L358.086 51.3125ZM354.258 45.6484L352.832 47.0511L352.844 47.0627L352.855 47.0741L354.258 45.6484ZM348.594 41.8203L347.798 43.6552L347.806 43.6586L348.594 41.8203ZM329.062 45.6484L330.465 47.0741L330.471 47.0684L330.477 47.0627L329.062 45.6484ZM325.234 51.3125L327.069 52.1083L327.073 52.1003L325.234 51.3125ZM325.234 65.1406L323.4 65.9365L323.403 65.9446L325.234 65.1406ZM329.062 70.7656L327.648 72.1798L329.062 70.7656ZM348.594 74.5938L347.806 72.7554L347.798 72.7589L348.594 74.5938ZM354.258 70.7656L352.844 69.3514L352.838 69.3572L352.832 69.363L354.258 70.7656ZM358.086 65.1406L359.917 65.9446L359.921 65.9365L358.086 65.1406ZM368.625 58.2266C368.625 60.704 368.297 63.0848 367.647 65.3751L371.494 66.4686C372.249 63.8111 372.625 61.0616 372.625 58.2266H368.625ZM367.643 65.3887C367.01 67.6757 366.112 69.8228 364.948 71.8347L368.411 73.8372C369.748 71.5261 370.776 69.0639 371.498 66.455L367.643 65.3887ZM364.954 71.8256C363.791 73.8118 362.386 75.6295 360.734 77.2811L363.563 80.1095C365.453 78.2194 367.068 76.1309 368.406 73.8463L364.954 71.8256ZM360.734 77.2811C359.079 78.9362 357.256 80.3578 355.263 81.5488L357.315 84.9825C359.593 83.6213 361.676 81.996 363.563 80.1095L360.734 77.2811ZM355.279 81.5396C353.3 82.6979 351.158 83.5947 348.847 84.2272L349.903 88.0853C352.54 87.3637 355.007 86.3334 357.299 84.9917L355.279 81.5396ZM348.828 84.2324C346.538 84.8834 344.157 85.2109 341.68 85.2109V89.2109C344.515 89.2109 347.264 88.8354 349.922 88.0801L348.828 84.2324ZM341.68 85.2109C339.202 85.2109 336.821 84.8834 334.531 84.2324L333.438 88.0801C336.095 88.8354 338.845 89.2109 341.68 89.2109V85.2109ZM334.518 84.2286C332.231 83.596 330.083 82.6978 328.072 81.5343L326.069 84.997C328.38 86.3335 330.842 87.3623 333.451 88.0839L334.518 84.2286ZM328.096 81.5488C326.103 80.3578 324.28 78.9362 322.625 77.2811L319.797 80.1095C321.683 81.996 323.767 83.6213 326.044 84.9825L328.096 81.5488ZM322.625 77.2811C320.97 75.626 319.548 73.8031 318.357 71.81L314.924 73.8618C316.285 76.1396 317.91 78.223 319.797 80.1095L322.625 77.2811ZM318.372 71.8347C317.205 69.8174 316.292 67.6639 315.633 65.3697L311.789 66.474C312.536 69.0757 313.576 71.5316 314.909 73.8372L318.372 71.8347ZM315.64 65.3939C315.012 63.098 314.695 60.7108 314.695 58.2266H310.695C310.695 61.0548 311.056 63.7978 311.782 66.4498L315.64 65.3939ZM314.695 58.2266C314.695 55.7423 315.012 53.3551 315.64 51.0592L311.782 50.0033C311.056 52.6553 310.695 55.3983 310.695 58.2266H314.695ZM315.635 51.078C316.294 48.7599 317.205 46.6117 318.367 44.6275L314.915 42.6068C313.576 44.8935 312.535 47.3547 311.787 49.9845L315.635 51.078ZM318.357 44.6431C319.548 42.65 320.97 40.8272 322.625 39.172L319.797 36.3436C317.91 38.2301 316.285 40.3135 314.924 42.5913L318.357 44.6431ZM322.625 39.172C324.277 37.5205 326.094 36.1153 328.081 34.9526L326.06 31.5005C323.775 32.8379 321.687 34.4535 319.797 36.3436L322.625 39.172ZM328.072 34.9579C330.083 33.7944 332.231 32.8961 334.518 32.2636L333.451 28.4083C330.842 29.1299 328.38 30.1587 326.069 31.4952L328.072 34.9579ZM334.531 32.2597C336.821 31.6088 339.202 31.2812 341.68 31.2812V27.2812C338.845 27.2812 336.095 27.6568 333.438 28.4121L334.531 32.2597ZM341.68 31.2812C344.157 31.2812 346.538 31.6088 348.828 32.2597L349.922 28.4121C347.264 27.6568 344.515 27.2812 341.68 27.2812V31.2812ZM348.847 32.265C351.158 32.8975 353.3 33.7943 355.279 34.9526L357.299 31.5005C355.007 30.1588 352.54 29.1285 349.903 28.4069L348.847 32.265ZM355.279 34.9526C357.265 36.1153 359.083 37.5205 360.734 39.172L363.563 36.3436C361.673 34.4535 359.584 32.8379 357.299 31.5005L355.279 34.9526ZM360.734 39.172C362.386 40.8236 363.791 42.6413 364.954 44.6275L368.406 42.6068C367.068 40.3222 365.453 38.2337 363.563 36.3436L360.734 39.172ZM364.954 44.6275C366.112 46.6063 367.009 48.748 367.641 51.0592L371.499 50.0033C370.778 47.3665 369.747 44.8989 368.406 42.6068L364.954 44.6275ZM367.647 51.078C368.297 53.3683 368.625 55.7491 368.625 58.2266H372.625C372.625 55.3915 372.249 52.6421 371.494 49.9845L367.647 51.078ZM361.492 58.2266C361.492 55.5158 360.971 52.9391 359.921 50.5167L356.251 52.1083C357.075 54.0088 357.492 56.0415 357.492 58.2266H361.492ZM359.924 50.5247C358.89 48.1106 357.47 46.0028 355.66 44.2228L352.855 47.0741C354.275 48.4712 355.407 50.1394 356.248 52.1003L359.924 50.5247ZM355.683 44.2458C353.903 42.4366 351.796 41.0166 349.382 39.982L347.806 43.6586C349.767 44.499 351.435 45.6311 352.832 47.0511L355.683 44.2458ZM349.39 39.9855C346.967 38.9348 344.39 38.4141 341.68 38.4141V42.4141C343.865 42.4141 345.897 42.8309 347.798 43.6552L349.39 39.9855ZM341.68 38.4141C338.946 38.4141 336.356 38.9336 333.931 39.9855L335.522 43.6552C337.42 42.832 339.466 42.4141 341.68 42.4141V38.4141ZM333.931 39.9855C331.546 41.0198 329.446 42.4361 327.648 44.2342L330.477 47.0627C331.908 45.6316 333.584 44.4958 335.522 43.6552L333.931 39.9855ZM327.66 44.2228C325.851 46.0028 324.431 48.1106 323.396 50.5247L327.073 52.1003C327.913 50.1394 329.045 48.4712 330.465 47.0741L327.66 44.2228ZM323.4 50.5167C322.349 52.9391 321.828 55.5158 321.828 58.2266H325.828C325.828 56.0415 326.245 54.0088 327.069 52.1083L323.4 50.5167ZM321.828 58.2266C321.828 60.9373 322.349 63.514 323.4 65.9365L327.069 64.3448C326.245 62.4443 325.828 60.4116 325.828 58.2266H321.828ZM323.403 65.9446C324.438 68.3026 325.854 70.3857 327.648 72.1798L330.477 69.3514C329.042 67.9164 327.905 66.2495 327.066 64.3366L323.403 65.9446ZM327.648 72.1798C329.446 73.9779 331.546 75.3943 333.931 76.4286L335.522 72.7589C333.584 71.9182 331.908 70.7825 330.477 69.3514L327.648 72.1798ZM333.931 76.4286C336.356 77.4805 338.946 78 341.68 78V74C339.466 74 337.42 73.582 335.522 72.7589L333.931 76.4286ZM341.68 78C344.39 78 346.967 77.4793 349.39 76.4286L347.798 72.7589C345.897 73.5832 343.865 74 341.68 74V78ZM349.382 76.432C351.796 75.3974 353.903 73.9775 355.683 72.1683L352.832 69.363C351.435 70.783 349.767 71.9151 347.806 72.7555L349.382 76.432ZM355.672 72.1798C357.466 70.3857 358.882 68.3026 359.917 65.9446L356.255 64.3366C355.415 66.2495 354.279 67.9164 352.844 69.3514L355.672 72.1798ZM359.921 65.9365C360.971 63.514 361.492 60.9373 361.492 58.2266H357.492C357.492 60.4116 357.075 62.4443 356.251 64.3448L359.921 65.9365ZM397.219 41.1953V39.1953H395.219V41.1953H397.219ZM397.219 63.6172H395.219V65.6172H397.219V63.6172ZM412.766 62.7578L413.545 64.5997L413.56 64.5934L413.575 64.5869L412.766 62.7578ZM418.703 56.7812L416.868 55.9851L416.865 55.9935L416.861 56.002L418.703 56.7812ZM418.703 48.0703L416.856 48.8371L416.865 48.8583L416.874 48.8793L418.703 48.0703ZM412.766 42.0938L411.957 43.9228L411.971 43.9294L411.986 43.9357L412.766 42.0938ZM397.219 86V88H399.219V86H397.219ZM386.008 86H384.008V88H386.008V86ZM386.008 29.9844V27.9844H384.008V29.9844H386.008ZM414.367 30.8047L413.814 32.7267L413.826 32.7302L413.839 32.7336L414.367 30.8047ZM419.68 33.0703L418.647 34.7829L418.663 34.7925L418.679 34.8018L419.68 33.0703ZM424.211 36.5859L422.783 37.9866L422.797 38.0002L422.81 38.0136L424.211 36.5859ZM427.727 41.1172L425.995 42.1182L426.001 42.1283L426.007 42.1383L427.727 41.1172ZM429.992 46.4688L428.063 46.9972L428.067 47.0095L428.07 47.0217L429.992 46.4688ZM430.07 58.0312L428.14 57.5073L428.137 57.5202L428.133 57.5332L430.07 58.0312ZM428 63.2266L426.252 62.2553L426.246 62.266L426.24 62.2767L428 63.2266ZM420.344 71.3516L419.279 69.6586L417.838 70.565L418.502 72.1323L420.344 71.3516ZM426.555 86V88H429.575L428.396 85.2193L426.555 86ZM414.641 86L412.805 86.794L413.327 88H414.641V86ZM409.758 74.7109L411.593 73.917L411.068 72.7027L409.745 72.711L409.758 74.7109ZM397.219 74.7891L397.206 72.7891L395.219 72.8015V74.7891H397.219ZM395.219 41.1953V63.6172H399.219V41.1953H395.219ZM397.219 65.6172H408.43V61.6172H397.219V65.6172ZM408.43 65.6172C410.222 65.6172 411.933 65.2817 413.545 64.5997L411.986 60.9159C410.89 61.3798 409.711 61.6172 408.43 61.6172V65.6172ZM413.575 64.5869C415.147 63.8913 416.539 62.9456 417.735 61.7502L414.906 58.9217C414.07 59.7575 413.092 60.4264 411.957 60.9287L413.575 64.5869ZM417.735 61.7502C418.937 60.548 419.874 59.1462 420.545 57.5605L416.861 56.002C416.386 57.1247 415.735 58.0926 414.906 58.9217L417.735 61.7502ZM420.538 57.5774C421.248 55.9405 421.602 54.2107 421.602 52.4062H417.602C417.602 53.6748 417.356 54.8615 416.868 55.9851L420.538 57.5774ZM421.602 52.4062C421.602 50.6019 421.248 48.8799 420.532 47.2613L416.874 48.8793C417.356 49.969 417.602 51.1377 417.602 52.4062H421.602ZM420.55 47.3036C419.881 45.6912 418.943 44.2708 417.735 43.0623L414.906 45.8908C415.729 46.7136 416.379 47.689 416.856 48.8371L420.55 47.3036ZM417.735 43.0623C416.532 41.8602 415.131 40.9227 413.545 40.2518L411.986 43.9357C413.109 44.4107 414.077 45.0616 414.906 45.8908L417.735 43.0623ZM413.575 40.2647C411.956 39.5487 410.234 39.1953 408.43 39.1953V43.1953C409.698 43.1953 410.867 43.4408 411.957 43.9228L413.575 40.2647ZM408.43 39.1953H397.219V43.1953H408.43V39.1953ZM397.219 84H386.008V88H397.219V84ZM388.008 86V29.9844H384.008V86H388.008ZM386.008 31.9844H408.43V27.9844H386.008V31.9844ZM408.43 31.9844C410.307 31.9844 412.1 32.2336 413.814 32.7267L414.92 28.8826C412.832 28.282 410.667 27.9844 408.43 27.9844V31.9844ZM413.839 32.7336C415.568 33.2073 417.168 33.891 418.647 34.7829L420.713 31.3577C418.91 30.2705 416.969 29.4438 414.896 28.8758L413.839 32.7336ZM418.679 34.8018C420.188 35.6744 421.555 36.7349 422.783 37.9866L425.639 35.1853C424.158 33.6766 422.505 32.3933 420.681 31.3388L418.679 34.8018ZM422.81 38.0136C424.062 39.2417 425.122 40.6087 425.995 42.1182L429.458 40.1162C428.404 38.2923 427.12 36.6385 425.612 35.1583L422.81 38.0136ZM426.007 42.1383C426.903 43.6482 427.589 45.2661 428.063 46.9972L431.921 45.9403C431.354 43.8694 430.529 41.9195 429.446 40.0961L426.007 42.1383ZM428.07 47.0217C428.563 48.7359 428.812 50.5285 428.812 52.4062H432.812C432.812 50.1694 432.515 48.0037 431.914 45.9158L428.07 47.0217ZM428.812 52.4062C428.812 54.16 428.588 55.8587 428.14 57.5073L432 58.5552C432.543 56.558 432.812 54.5067 432.812 52.4062H428.812ZM428.133 57.5332C427.707 59.1914 427.08 60.7641 426.252 62.2553L429.748 64.1978C430.743 62.4077 431.496 60.5169 432.007 58.5293L428.133 57.5332ZM426.24 62.2767C425.439 63.761 424.448 65.1298 423.264 66.3854L426.174 69.1303C427.593 67.6254 428.79 65.9734 429.76 64.1764L426.24 62.2767ZM423.264 66.3854C422.078 67.6421 420.751 68.7325 419.279 69.6586L421.409 73.0445C423.165 71.9394 424.755 70.634 426.174 69.1303L423.264 66.3854ZM418.502 72.1323L424.713 86.7807L428.396 85.2193L422.185 70.5708L418.502 72.1323ZM426.555 84H414.641V88H426.555V84ZM416.476 85.206L411.593 73.917L407.922 75.5049L412.805 86.794L416.476 85.206ZM409.745 72.711L397.206 72.7891L397.231 76.789L409.77 76.7109L409.745 72.711ZM395.219 74.7891V86H399.219V74.7891H395.219ZM444.242 40.2578L442.409 39.4586L444.242 40.2578ZM447.836 34.9453L446.422 33.5311L447.836 34.9453ZM485.414 29.9844H487.414V27.9844H485.414V29.9844ZM485.414 41.1953V43.1953H487.414V41.1953H485.414ZM455.727 42.8359L454.312 41.4217L455.727 42.8359ZM454.555 49.0078L452.703 49.7624L452.708 49.7748L452.713 49.7871L454.555 49.0078ZM455.727 50.8047L454.277 52.1822L454.312 52.2194L454.349 52.2547L455.727 50.8047ZM477.445 53.7344L476.646 55.5678L476.66 55.5739L476.674 55.5798L477.445 53.7344ZM482.797 57.3281L481.371 58.7302L481.383 58.7424L481.395 58.7544L482.797 57.3281ZM486.391 62.6797L484.545 63.4506L484.551 63.4648L484.557 63.4789L486.391 62.6797ZM486.391 75.7266L484.557 74.9274L484.553 74.9373L484.549 74.9473L486.391 75.7266ZM482.797 81.0781L484.211 82.4923L482.797 81.0781ZM477.445 84.6719L476.655 82.8348L476.646 82.8385L477.445 84.6719ZM446.039 86H444.039V88H446.039V86ZM446.039 74.7891V72.7891H444.039V74.7891H446.039ZM474.867 73.1875L473.453 71.7733L474.867 73.1875ZM474.867 65.2578L473.417 66.6353L473.453 66.6725L473.49 66.7078L474.867 65.2578ZM447.836 58.6953L446.41 60.0974L446.422 60.1096L446.434 60.1216L447.836 58.6953ZM444.242 53.3438L442.405 54.1344L442.409 54.1429L444.242 53.3438ZM444.914 46.7812C444.914 44.7256 445.305 42.8246 446.076 41.057L442.409 39.4586C441.408 41.7536 440.914 44.2014 440.914 46.7812H444.914ZM446.076 41.057C446.865 39.2465 447.923 37.6864 449.25 36.3595L446.422 33.5311C444.728 35.2251 443.39 37.2067 442.409 39.4586L446.076 41.057ZM449.25 36.3595C450.606 35.0036 452.18 33.9333 453.987 33.1459L452.388 29.4791C450.132 30.4625 448.139 31.8141 446.422 33.5311L449.25 36.3595ZM453.987 33.1459C455.754 32.3754 457.655 31.9844 459.711 31.9844V27.9844C457.131 27.9844 454.683 28.4788 452.388 29.4791L453.987 33.1459ZM459.711 31.9844H485.414V27.9844H459.711V31.9844ZM483.414 29.9844V41.1953H487.414V29.9844H483.414ZM485.414 39.1953H459.711V43.1953H485.414V39.1953ZM459.711 39.1953C458.679 39.1953 457.683 39.3859 456.744 39.7831L458.303 43.4669C458.718 43.2912 459.18 43.1953 459.711 43.1953V39.1953ZM456.744 39.7831C455.829 40.1701 455.015 40.7191 454.312 41.4217L457.141 44.2502C457.48 43.9111 457.863 43.6528 458.303 43.4669L456.744 39.7831ZM454.312 41.4217C453.626 42.1078 453.094 42.9124 452.713 43.8145L456.397 45.373C456.588 44.921 456.837 44.5537 457.141 44.2502L454.312 41.4217ZM452.713 43.8145C452.316 44.7533 452.125 45.7493 452.125 46.7812H456.125C456.125 46.2507 456.221 45.7883 456.397 45.373L452.713 43.8145ZM452.125 46.7812C452.125 47.8136 452.316 48.8127 452.703 49.7624L456.407 48.2532C456.221 47.7967 456.125 47.3114 456.125 46.7812H452.125ZM452.713 49.7871C453.091 50.6802 453.612 51.483 454.277 52.1822L457.177 49.4272C456.851 49.0847 456.592 48.6896 456.397 48.2285L452.713 49.7871ZM454.349 52.2547C455.048 52.9189 455.851 53.4406 456.744 53.8185L458.303 50.1346C457.842 49.9396 457.447 49.6801 457.104 49.3547L454.349 52.2547ZM456.744 53.8185C457.683 54.2157 458.679 54.4062 459.711 54.4062V50.4062C459.18 50.4062 458.718 50.3103 458.303 50.1346L456.744 53.8185ZM459.711 54.4062H470.922V50.4062H459.711V54.4062ZM470.922 54.4062C472.977 54.4062 474.879 54.7973 476.646 55.5678L478.244 51.901C475.95 50.9006 473.502 50.4062 470.922 50.4062V54.4062ZM476.674 55.5798C478.495 56.3402 480.053 57.3903 481.371 58.7302L484.223 55.926C482.519 54.193 480.511 52.8473 478.216 51.8889L476.674 55.5798ZM481.395 58.7544C482.735 60.0715 483.785 61.6303 484.545 63.4506L488.236 61.9088C487.278 59.6144 485.932 57.6056 484.199 55.9019L481.395 58.7544ZM484.557 63.4789C485.328 65.2464 485.719 67.1475 485.719 69.2031H489.719C489.719 66.6233 489.224 64.1754 488.224 61.8805L484.557 63.4789ZM485.719 69.2031C485.719 71.2587 485.328 73.1598 484.557 74.9274L488.224 76.5257C489.224 74.2308 489.719 71.7829 489.719 69.2031H485.719ZM484.549 74.9473C483.788 76.745 482.734 78.3124 481.383 79.6639L484.211 82.4923C485.932 80.771 487.274 78.7706 488.233 76.5058L484.549 74.9473ZM481.383 79.6639C480.06 80.9865 478.491 82.0446 476.655 82.8348L478.236 86.509C480.515 85.5283 482.513 84.1906 484.211 82.4923L481.383 79.6639ZM476.646 82.8385C474.879 83.609 472.977 84 470.922 84V88C473.502 88 475.95 87.5056 478.244 86.5053L476.646 82.8385ZM470.922 84H446.039V88H470.922V84ZM448.039 86V74.7891H444.039V86H448.039ZM446.039 76.7891H470.922V72.7891H446.039V76.7891ZM470.922 76.7891C471.954 76.7891 472.95 76.5985 473.889 76.2013L472.33 72.5174C471.915 72.6932 471.452 72.7891 470.922 72.7891V76.7891ZM473.889 76.2013C474.791 75.8197 475.595 75.2878 476.281 74.6017L473.453 71.7733C473.149 72.0768 472.782 72.3262 472.33 72.5174L473.889 76.2013ZM476.281 74.6017C476.984 73.8991 477.533 73.0847 477.92 72.1699L474.236 70.6113C474.05 71.0508 473.792 71.4342 473.453 71.7733L476.281 74.6017ZM477.92 72.1699C478.317 71.2311 478.508 70.2351 478.508 69.2031H474.508C474.508 69.7337 474.412 70.196 474.236 70.6113L477.92 72.1699ZM478.508 69.2031C478.508 68.1712 478.317 67.1752 477.92 66.2363L474.236 67.7949C474.412 68.2102 474.508 68.6726 474.508 69.2031H478.508ZM477.92 66.2363C477.529 65.3122 476.969 64.4964 476.245 63.8078L473.49 66.7078C473.807 67.0088 474.054 67.3649 474.236 67.7949L477.92 66.2363ZM476.317 63.8803C475.629 63.1555 474.813 62.5959 473.889 62.2049L472.33 65.8888C472.76 66.0708 473.116 66.3185 473.417 66.6353L476.317 63.8803ZM473.889 62.2049C472.95 61.8077 471.954 61.6172 470.922 61.6172V65.6172C471.452 65.6172 471.915 65.7131 472.33 65.8888L473.889 62.2049ZM470.922 61.6172H459.711V65.6172H470.922V61.6172ZM459.711 61.6172C457.655 61.6172 455.754 61.2262 453.987 60.4557L452.388 64.1225C454.683 65.1228 457.131 65.6172 459.711 65.6172V61.6172ZM453.987 60.4557C452.173 59.6651 450.595 58.6032 449.238 57.2691L446.434 60.1216C448.15 61.8083 450.139 63.1422 452.388 64.1225L453.987 60.4557ZM449.262 57.2932C447.928 55.9361 446.866 54.3582 446.076 52.5446L442.409 54.1429C443.389 56.3918 444.723 58.3816 446.41 60.0974L449.262 57.2932ZM446.079 52.5531C445.305 50.7543 444.914 48.8368 444.914 46.7812H440.914C440.914 49.3612 441.408 51.8186 442.405 54.1344L446.079 52.5531Z" fill="#FFB951"/>
</g>
<defs>
<filter id="filter0_d_613_37" x="0.804688" y="0.28125" width="515.914" height="115.93" filterUnits="userSpaceOnUse" color-interpolation-filters="sRGB">
<feFlood flood-opacity="0" result="BackgroundImageFix"/>
<feColorMatrix in="SourceAlpha" type="matrix" values="0 0 0 0 0 0 0 0 0 0 0 0 0 0 0 0 0 0 127 0" result="hardAlpha"/>
<feOffset/>
<feGaussianBlur stdDeviation="14.5"/>
<feComposite in2="hardAlpha" operator="out"/>
<feColorMatrix type="matrix" values="0 0 0 0 1 0 0 0 0 0.714286 0 0 0 0 0.45 0 0 0 1 0"/>
<feBlend mode="normal" in2="BackgroundImageFix" result="effect1_dropShadow_613_37"/>
<feBlend mode="normal" in="SourceGraphic" in2="effect1_dropShadow_613_37" result="shape"/>
</filter>
</defs>
</svg>
