<svg width="118" height="128" viewBox="0 0 118 128" fill="none" xmlns="http://www.w3.org/2000/svg">
<path fill-rule="evenodd" clip-rule="evenodd" d="M31.7576 121.541C40.2152 125.678 49.7201 128 59.7665 128C69.137 128 78.0365 125.98 86.0544 122.351L61.9309 0.0360216C61.2124 0.0120705 60.4908 0 59.7665 0C58.4017 0 57.0469 0.0428501 55.7033 0.12728L31.7576 121.541ZM79.2262 3.0216L100.881 112.996C103.239 111.009 105.452 108.855 107.5 106.551L118 37.6085C110.593 21.2401 96.5074 8.54865 79.2262 3.0216ZM38.2543 3.71694L16.8765 111.444C14.1898 109.006 11.711 106.342 9.47015 103.483L0 41.3003C6.61837 23.831 20.6533 10.0177 38.2543 3.71694Z" fill="url(#paint0_linear_613_206)"/>
<defs>
<linearGradient id="paint0_linear_613_206" x1="9.67213" y1="25.1803" x2="100.304" y2="104.89" gradientUnits="userSpaceOnUse">
<stop stop-color="#06425C"/>
<stop offset="1" stop-color="#BA926D"/>
</linearGradient>
</defs>
</svg>
