<svg width="49" height="49" viewBox="0 0 49 49" fill="none" xmlns="http://www.w3.org/2000/svg">
<path d="M24.5 0C10.9711 0 0 10.9711 0 24.5C0 38.0289 10.9711 49 24.5 49C38.0289 49 49 38.0289 49 24.5C49 10.9711 38.0338 0 24.5 0ZM12.0883 25.3232L12.1912 25.1566L18.5661 15.1851C18.6592 15.043 18.8797 15.0577 18.9483 15.2145C20.0116 17.6008 20.9328 20.5702 20.5016 22.4175C20.3203 23.177 19.8156 24.206 19.2472 25.1566C19.1737 25.2938 19.0953 25.431 19.0071 25.5633C18.9679 25.6221 18.8993 25.6564 18.8258 25.6564H12.2745C12.0981 25.6564 11.9952 25.4653 12.0883 25.3232ZM40.4936 28.7532C40.4936 28.8463 40.4397 28.9247 40.3613 28.959C39.8664 29.1697 38.1759 29.9488 37.4752 30.9239C35.6818 33.418 34.3147 36.9852 31.2522 36.9852H18.4828C13.9552 36.9852 10.29 33.3053 10.29 28.763V28.616C10.29 28.4984 10.388 28.4004 10.5105 28.4004H17.6253C17.7674 28.4004 17.8703 28.5278 17.8605 28.6699C17.8066 29.1305 17.8948 29.6058 18.1153 30.037C18.5367 30.8945 19.4138 31.4286 20.3595 31.4286H23.8826V28.6797H20.3987C20.2223 28.6797 20.1145 28.4739 20.2174 28.3269C20.2566 28.2681 20.2958 28.2093 20.3448 28.1407C20.6731 27.6703 21.1435 26.9451 21.6139 26.117C21.9324 25.5584 22.2411 24.9606 22.491 24.3628C22.54 24.255 22.5792 24.1423 22.6233 24.0345C22.6919 23.8434 22.7605 23.6621 22.8095 23.4857C22.8585 23.3338 22.9026 23.177 22.9418 23.03C23.0594 22.5204 23.1084 21.9814 23.1084 21.4228C23.1084 21.2023 23.0986 20.972 23.079 20.7564C23.0692 20.5163 23.0398 20.2762 23.0104 20.0361C22.9908 19.8254 22.9516 19.6147 22.9124 19.3991C22.8585 19.0806 22.7899 18.7621 22.7115 18.4436L22.6821 18.3211C22.6233 18.1006 22.5694 17.8948 22.5008 17.6743C22.2999 16.9883 22.0745 16.317 21.8295 15.6898C21.7413 15.4399 21.6433 15.1998 21.5404 14.9646C21.3934 14.602 21.2415 14.2737 21.1043 13.965C21.0308 13.8229 20.972 13.6955 20.9132 13.5632C20.8446 13.4162 20.776 13.2692 20.7025 13.1271C20.6535 13.0193 20.5947 12.9164 20.5555 12.8184L20.1243 12.0246C20.0655 11.9168 20.1635 11.7845 20.2811 11.8188L22.9761 12.5489H22.9859C22.9908 12.5489 22.9908 12.5489 22.9957 12.5489L23.3485 12.6518L23.7405 12.7596L23.8826 12.7988V11.2014C23.8826 10.4272 24.5 9.8 25.2693 9.8C25.6515 9.8 25.9994 9.9568 26.2444 10.2116C26.4943 10.4664 26.6511 10.8143 26.6511 11.2014V13.5779L26.9402 13.6563C26.9598 13.6661 26.9843 13.6759 27.0039 13.6906C27.0725 13.7396 27.1754 13.818 27.3028 13.916C27.4057 13.9944 27.5135 14.0924 27.6409 14.1953C27.9006 14.406 28.2142 14.6755 28.5523 14.9842C28.6405 15.0626 28.7287 15.141 28.812 15.2243C29.2481 15.631 29.7381 16.1063 30.2085 16.6355C30.3408 16.7874 30.4682 16.9344 30.6005 17.0961C30.7279 17.2578 30.87 17.4146 30.9876 17.5714C31.1493 17.7821 31.3159 18.0026 31.4678 18.2329C31.5364 18.3407 31.6197 18.4534 31.6834 18.5612C31.8794 18.8503 32.046 19.1492 32.2077 19.4481C32.2763 19.5853 32.3449 19.7372 32.4037 19.8842C32.585 20.286 32.7271 20.6927 32.8153 21.1043C32.8447 21.1925 32.8643 21.2856 32.8741 21.3738V21.3934C32.9035 21.511 32.9133 21.6384 32.9231 21.7707C32.9623 22.1872 32.9427 22.6086 32.8545 23.03C32.8153 23.2064 32.7663 23.373 32.7075 23.5543C32.6438 23.7258 32.585 23.9022 32.5066 24.0737C32.3547 24.4216 32.1783 24.7744 31.9676 25.0978C31.899 25.2203 31.8157 25.3477 31.7373 25.4702C31.6491 25.5976 31.556 25.7201 31.4776 25.8377C31.3649 25.9896 31.2473 26.1464 31.1248 26.2885C31.017 26.4355 30.9092 26.5825 30.7867 26.7148C30.6201 26.9157 30.4584 27.1019 30.2869 27.2832C30.1889 27.4008 30.0811 27.5233 29.9684 27.6311C29.8606 27.7536 29.7479 27.8614 29.6499 27.9594C29.4784 28.1309 29.3412 28.2583 29.2236 28.371L28.9443 28.6209C28.9051 28.6601 28.8512 28.6797 28.7973 28.6797H26.6511V31.4286H29.351C29.9537 31.4286 30.527 31.2179 30.9925 30.821C31.1493 30.6838 31.8402 30.086 32.6585 29.1844C32.6879 29.1501 32.7222 29.1305 32.7614 29.1207L40.2143 26.9647C40.3564 26.9255 40.4936 27.0284 40.4936 27.1754V28.7532Z" fill="white"/>
</svg>
